<svg id="Calque_1" data-name="Calque 1" xmlns="http://www.w3.org/2000/svg" viewBox="0 0 449.86 512"><path id="path118" d="M31.81,1.62l.08,5.7c0,3.14,13.64,105.37,24.7,229.07l21.28,221,87.8,24.93C215.38,496.27,254.75,505.87,256,506s41.28-14.29,91.67-28.24c80.77-22.37,87-23.48,87.58-26.25.8-3.86,38.86-438.2,38.82-443l-.44-3.75L256.73,1.62Z" transform="translate(-31.07 0)" style="fill:#fff"/><path id="path88" d="M164.27,482.72l-87.8-22.94-1.76-4.71C73.65,449.08,38.38,12.79,38.38,7c0-2.11,14.26-3.53,217.61-3.53,214.64,0,218.54-1.86,218.52.67-.07,10.88-36.16,452-37.17,452.89-1.27,1.13-177.16,50.6-183.06,51.48-1.67.24-36-10-86.18-24ZM313.48,398c30.65-8.45,56.17-15.8,56.71-16.34s4.12-36.87,8-80.75,7.37-82.69,7.84-86.24l.87-6.46H254.47v56.23H326l-.71,3.42c-.39,1.88-1.91,18-3.38,35.91-1.55,18.94-3.4,33.23-4.42,34.25s-15.52,5.42-32.36,9.91l-30.61,8.16v28.64c0,19.55.52,28.64,1.64,28.64.91,0,26.72-6.92,57.37-15.37ZM386,172.87c-1-7.45-10-107.33-10-111.09,0-2.29-5.26-2.51-60-2.51H256v58.8l27,1c14.84.57,30.45,1.44,34.7,1.93l7.72.89,1.87,23c1,12.65,2.26,25.56,2.73,28.7l.86,5.7h56Z" transform="translate(-31.07 0)" style="fill:#eaebec"/><path id="path80" d="M161.81,486.54,71.43,461.23,51.32,236.31C40.26,112.61,31.18,8.83,31.14,5.7L31.07,0H480.9l0,3.42c0,4.77-39.52,451-40.32,454.87-.58,2.77-11.48,6.14-92.26,28.51C298,500.75,255.72,512.09,254.47,512s-42.95-11.55-92.66-25.46Zm151.74-87.47c31.24-8.69,57.25-16.51,57.79-17.39s4.27-39.07,8.29-84.88,7.64-84.48,8-85.94c.69-2.51-4.62-2.66-96.32-2.66H194.29l4.13-43.69c2.27-24,4.19-43.76,4.25-43.83s14.32-.53,31.66-1c28.44-.79,87.08,1.48,89,3.44.73.74,5.55,48.05,5.55,54.5,0,3.19.43,3.24,29.45,3.24h29.45l-.7-6.46c-.38-3.56-2.87-31.08-5.54-61.17l-4.85-54.71-113.57-.39c-90.35-.31-113.57,0-113.58,1.52,0,1-.67,7.72-1.47,14.83-1.94,17.19-16.75,183.3-16.75,187.89V266H324.64l-.86,5.7c-.48,3.13-2,19-3.34,35.33S317.52,337,317,337.55c-1.42,1.36-58.27,16.55-61.81,16.51-1.65,0-16.33-3.68-32.63-8.14l-29.63-8.11-1.09-12.75c-.6-7-1.51-17-2-22.26l-.93-9.5H131.37l.06,5.7c.12,10.66,7,82.45,8,83.45,1.16,1.16,111.6,32.21,115,32.33,1.25,0,27.84-7,59.08-15.71Z" transform="translate(-31.07 0)" style="fill:#f0be25"/><path id="path78" d="M161.81,486.54,71.43,461.23,51.32,236.31C40.26,112.61,31.18,8.83,31.14,5.7L31.07,0H480.9l0,3.42c0,4.77-39.52,451-40.32,454.87-.58,2.77-11.48,6.14-92.26,28.51C298,500.75,255.72,512.09,254.47,512s-42.95-11.55-92.66-25.46Zm168.54-33.86c39.76-11,73-20.71,73.95-21.65,1.42-1.47,35.75-377.79,35.62-390.38l-.05-4.18H256V57.75H202.8c-41.54,0-53.2.42-53.21,1.9,0,1-.67,7.71-1.47,14.82-1.94,17.19-16.75,183.3-16.75,187.89V266H256V310c0,34.26-.43,44.07-1.9,44-1.05,0-15.24-3.68-31.54-8.14l-29.63-8.11-1.09-12.75c-.6-7-1.51-17-2-22.26l-.93-9.5H131.37l.06,5.7c.19,16.3,7.24,82.84,8.89,83.86,1,.62,27.44,8.22,58.75,16.88L256,415.49v28.57c0,15.71.46,28.57,1,28.57s33.56-9,73.32-19.95ZM198.26,164.92c2.18-23.81,4.27-43.56,4.63-43.89s12.46-.92,26.88-1.32L256,119V208.2h-61.7Z" transform="translate(-31.07 0)" style="fill:#e4a126"/></svg>