<svg id="Calque_2" data-name="Calque 2" xmlns="http://www.w3.org/2000/svg" xmlns:xlink="http://www.w3.org/1999/xlink" viewBox="0 0 16.67 13.08"><defs><clipPath id="clip-path" transform="translate(-2.07 14.41)"><rect x="2.07" y="-14.41" width="16.67" height="13.08" style="fill:none"/></clipPath></defs><g style="clip-path:url(#clip-path)"><path d="M3.78-13.91H17a1.21,1.21,0,0,1,1.21,1.21v0a1.21,1.21,0,0,1-.56,1L11.05-7.49a1.22,1.22,0,0,1-1.3,0l-6.62-4.2a1.19,1.19,0,0,1-.56-1A1.21,1.21,0,0,1,3.78-13.91Zm14.45,5v5.76a1.32,1.32,0,0,1-1.32,1.31h-13A1.32,1.32,0,0,1,2.57-3.14V-8.9" transform="translate(-2.07 14.41)" style="fill:none;stroke:#a62828;stroke-linecap:round;stroke-linejoin:round"/></g></svg>