<svg id="Calque_2" data-name="Calque 2" xmlns="http://www.w3.org/2000/svg" xmlns:xlink="http://www.w3.org/1999/xlink" viewBox="0 0 13.43 13.12"><defs><clipPath id="clip-path" transform="translate(-3.93 14.44)"><rect x="3.96" y="-14.41" width="13.36" height="13.05" style="fill:none"/></clipPath></defs><g style="clip-path:url(#clip-path)"><path d="M13.59-6.93c-.89-.05-1.3,1.48-2.17,1.34a4.81,4.81,0,0,1-2-1.26A4,4,0,0,1,8.29-8.64c-.14-.85,1.43-1.25,1.37-2.12s-2.57-3.18-3.37-3.18-1.76,1-1.85,2.35C4.26-8.5,7.78-5.11,7.78-5.1s3.48,3.44,6.66,3.27c1.39-.1,2.42-1,2.42-1.81s-2.38-3.23-3.27-3.29" transform="translate(-3.93 14.44)" style="fill:none;stroke:#a62828;stroke-miterlimit:10"/></g></svg>