<svg id="Calque_2" data-name="Calque 2" xmlns="http://www.w3.org/2000/svg" xmlns:xlink="http://www.w3.org/1999/xlink" viewBox="0 0 23.48 13.13"><defs><clipPath id="clip-path" transform="translate(0.88 14.43)"><rect x="-0.86" y="-14.41" width="23.43" height="13.08" style="fill:none"/></clipPath></defs><g style="clip-path:url(#clip-path)"><path d="M18.18-2.93a1.51,1.51,0,0,1-1.51-1.53A1.51,1.51,0,0,1,18.18-6a1.51,1.51,0,0,1,1.5,1.52,1.51,1.51,0,0,1-1.5,1.53M14.33-9.45H9.79v-3.47c3.65.18,5.15,2.51,5.17,3s-.63.47-.63.47m-5.78,0H4.68a1.35,1.35,0,0,1-.61-.14.56.56,0,0,1-.19-.72,5.44,5.44,0,0,1,.9-1.76c.43-.42.92-.82,3.77-.85Zm-5,6.52A1.52,1.52,0,0,1,2-4.46,1.52,1.52,0,0,1,3.55-6a1.51,1.51,0,0,1,1.5,1.52,1.51,1.51,0,0,1-1.5,1.53m17.6-5.78c-.73-.92-3-1.14-3.73-1.26a1.53,1.53,0,0,1-1.22-.69,7.41,7.41,0,0,0-3.72-2.84,16,16,0,0,0-7.91-.12C2.82-13,2-10.8,1.61-10.23S.49-9.6.15-8.89A7.47,7.47,0,0,0-.39-4.62c.26.62,1.26.84,1.26.84a2.84,2.84,0,0,0,2.68,2.1,2.8,2.8,0,0,0,2.67-2h9.32a2.73,2.73,0,0,0,2.69,2A2.77,2.77,0,0,0,20.9-3.87C22-4.09,22-4.57,22.15-5.06a4.93,4.93,0,0,0-1-3.65" transform="translate(0.88 14.43)" style="fill:none;stroke:#a72727;stroke-miterlimit:10;stroke-width:0.75px"/></g></svg>